
<?xml version="1.0" encoding="utf-8"?>
<!-- Generator: Adobe Illustrator 25.4.1, SVG Export Plug-In . SVG Version: 6.00 Build 0)  -->
<svg id="horlogesvg" version="1.1" id="Calque_1" xmlns="http://www.w3.org/2000/svg" xmlns:xlink="http://www.w3.org/1999/xlink" x="0px" y="0px"
	 viewBox="0 0 3061.4 3061.4" style="enable-background:new 0 0 3061.4 3061.4;" xml:space="preserve">

<g id="minute">
	<circle id="m0" class="st0" cx="1528.8" cy="289.5" r="45.5"/>
	<circle id="m1" class="st0" cx="1658.4" cy="296.1" r="45.5"/>
	<circle id="m2" class="st0" cx="1786.6" cy="316.2" r="45.5"/>
	<circle id="m3" class="st0" cx="1912" cy="349.6" r="45.5"/>
	<circle id="m4" class="st0" cx="2033.3" cy="395.9" r="45.5"/>
	<circle id="m5" class="st0" cx="2149" cy="454.5" r="45.5"/>
	<circle id="m6" class="st0" cx="2258" cy="525" r="45.5"/>
	<circle id="m7" class="st0" cx="2359" cy="606.4" r="45.5"/>
	<circle id="m8" class="st0" cx="2451" cy="698" r="45.5"/>
	<circle id="m9" class="st0" cx="2532.9" cy="798.6" r="45.5"/>
	<circle id="m10" class="st0" cx="2603.9" cy="907.3" r="45.5"/>
	<circle id="m11" class="st0" cx="2663.1" cy="1022.8" r="45.5"/>
	<circle id="m12" class="st0" cx="2710" cy="1143.8" r="45.5"/>
	<circle id="m13" class="st0" cx="2743.9" cy="1269" r="45.5"/>
	<circle id="m14" class="st0" cx="2764.6" cy="1397.2" r="45.5"/>
	<circle id="m15" class="st0" cx="2771.8" cy="1526.7" r="45.5"/>
	<circle id="m16" class="st0" cx="2765.4" cy="1656.3" r="45.5"/>
	<circle id="m17" class="st0" cx="2745.5" cy="1784.6" r="45.5"/>
	<circle id="m18" class="st0" cx="2712.4" cy="1910.1" r="45.5"/>
	<circle id="m19" class="st0" cx="2666.3" cy="2031.4" r="45.5"/>
	<circle id="m20" class="st0" cx="2607.8" cy="2147.2" r="45.5"/>
	<circle id="m21" class="st0" cx="2537.5" cy="2256.3" r="45.5"/>
	<circle id="m22" class="st0" cx="2456.3" cy="2357.5" r="45.5"/>
	<circle id="m23" class="st0" cx="2364.9" cy="2449.6" r="45.5"/>
	<circle id="m24" class="st0" cx="2264.4" cy="2531.7" r="45.5"/>
	<circle id="m25" class="st0" cx="2155.8" cy="2602.8" r="45.5"/>
	<circle id="m26" class="st0" cx="2040.4" cy="2662.3" r="45.5"/>
	<circle id="m27" class="st0" cx="1919.5" cy="2709.3" r="45.5"/>
	<circle id="m28" class="st0" cx="1794.3" cy="2743.5" r="45.5"/>
	<circle id="m29" class="st0" cx="1666.2" cy="2764.4" r="45.5"/>
	<circle id="m30" class="st0" cx="1536.7" cy="2771.8" r="45.5"/>
	<circle id="m31" class="st0" cx="1407" cy="2765.6" r="45.5"/>
	<circle id="m32" class="st0" cx="1278.8" cy="2746" r="45.5"/>
	<circle id="m33" class="st0" cx="1153.2" cy="2713" r="45.5"/>
	<circle id="m34" class="st0" cx="1031.8" cy="2667.1" r="45.5"/>
	<circle id="m35" class="st0" cx="915.9" cy="2608.8" r="45.5"/>
	<circle id="m36" class="st0" cx="806.7" cy="2538.8" r="45.5"/>
	<circle id="m37" class="st0" cx="705.4" cy="2457.6" r="45.5"/>
	<circle id="m38" class="st0" cx="613.1" cy="2366.4" r="45.5"/>
	<circle id="m39" class="st0" cx="530.8" cy="2266" r="45.5"/>
	<circle id="m40" class="st0" cx="459.5" cy="2157.6" r="45.5"/>
	<circle id="m41" class="st0" cx="399.9" cy="2042.3" r="45.5"/>
	<circle id="m42" class="st0" cx="352.7" cy="1921.5" r="45.5"/>
	<circle id="m43" class="st0" cx="318.3" cy="1796.3" r="45.5"/>
	<circle id="m44" class="st0" cx="297.2" cy="1668.3" r="45.5"/>
	<circle id="m45" class="st0" cx="289.6" cy="1538.7" r="45.5"/>
	<circle id="m46" class="st0" cx="295.5" cy="1409.1" r="45.5"/>
	<circle id="m47" class="st0" cx="315" cy="1280.8" r="45.5"/>
	<circle id="m48" class="st0" cx="347.7" cy="1155.2" r="45.5"/>
	<circle id="m49" class="st0" cx="393.4" cy="1033.7" r="45.5"/>
	<circle id="m50" class="st0" cx="451.5" cy="917.7" r="45.5"/>
	<circle id="m51" class="st0" cx="521.4" cy="808.4" r="45.5"/>
	<circle id="m52" class="st0" cx="602.3" cy="706.9" r="45.5"/>
	<circle id="m53" class="st0" cx="693.4" cy="614.5" r="45.5"/>
	<circle id="m54" class="st0" cx="793.6" cy="532.1" r="45.5"/>
	<circle id="m55" class="st0" cx="901.9" cy="460.6" r="45.5"/>
	<circle id="m56" class="st0" cx="1017.1" cy="400.8" r="45.5"/>
	<circle id="m57" class="st0" cx="1137.9" cy="353.3" r="45.5"/>
	<circle id="m58" class="st0" cx="1263" cy="318.7" r="45.5"/>
	<circle id="m59" class="st0" cx="1391.1" cy="297.4" r="45.5"/>
</g>
<g id="heure">
	<circle id="h0" class="st0" cx="1530.3" cy="469" r="71"/>
	<circle id="h1" class="st0" cx="2061" cy="611" r="71"/>
	<circle id="h2" class="st0" cx="2449.7" cy="999.2" r="71"/>
	<circle id="h3" class="st0" cx="2592.3" cy="1529.8" r="71"/>
	<circle id="h4" class="st0" cx="2450.6" cy="2060.6" r="71"/>
	<circle id="h5" class="st0" cx="2062.5" cy="2449.4" r="71"/>
	<circle id="h6" class="st0" cx="1532.1" cy="2592.3" r="71"/>
	<circle id="h7" class="st0" cx="1001.2" cy="2450.8" r="71"/>
	<circle id="h8" class="st0" cx="612.1" cy="2063" r="71"/>
	<circle id="h9" class="st0" cx="469" cy="1532.6" r="71"/>
	<circle id="h10" class="st0" cx="610.2" cy="1001.7" r="71"/>
	<circle id="h11" class="st0" cx="997.9" cy="612.4" r="71"/>
</g>
<g id="seconde">
	<rect id="s0" x="1528.3" y="128" class="st0" width="7" height="83"/>
	
		<rect id="s1" x="1670.4" y="135.6" transform="matrix(0.9945 0.1044 -0.1044 0.9945 27.6292 -173.7546)" class="st0" width="7" height="83"/>
	
		<rect id="s2" x="1810.9" y="157.9" transform="matrix(0.9782 0.2076 -0.2076 0.9782 80.945 -372.362)" class="st0" width="7" height="83"/>
	
		<rect id="s3" x="1948.3" y="194.8" transform="matrix(0.9512 0.3086 -0.3086 0.9512 168.1894 -590.7812)" class="st0" width="7" height="83"/>
	
		<rect id="s4" x="2081.1" y="245.8" transform="matrix(0.9138 0.4062 -0.4062 0.9138 296.4452 -821.9852)" class="st0" width="7" height="83"/>
	
		<rect id="s5" x="2207.8" y="310.5" transform="matrix(0.8664 0.4994 -0.4994 0.8664 471.2087 -1057.24)" class="st0" width="7" height="83"/>
	
		<rect id="s6" x="2327.2" y="387.9" transform="matrix(0.8095 0.5871 -0.5871 0.8095 696.0287 -1286.4705)" class="st0" width="7" height="83"/>
	
		<rect id="s7" x="2437.7" y="477.5" transform="matrix(0.7438 0.6684 -0.6684 0.7438 972.23 -1498.6975)" class="st0" width="7" height="83"/>
	
		<rect id="s8" x="2538.4" y="578" transform="matrix(0.67 0.7424 -0.7424 0.67 1298.7341 -1682.5276)" class="st0" width="7" height="83"/>
	
		<rect id="s9" x="2627.9" y="688.6" transform="matrix(0.5889 0.8082 -0.8082 0.5889 1671.9866 -1826.6722)" class="st0" width="7" height="83"/>
	
		<rect id="s10" x="2705.5" y="807.8" transform="matrix(0.5013 0.8653 -0.8653 0.5013 2085.9949 -1920.4767)" class="st0" width="7" height="83"/>
	
		<rect id="s11" x="2770.2" y="934.6" transform="matrix(0.4082 0.9129 -0.9129 0.4082 2532.4783 -1954.431)" class="st0" width="7" height="83"/>
	
		<rect id="s12" x="2821.3" y="1067.3" transform="matrix(0.3107 0.9505 -0.9505 0.3107 3001.1208 -1920.6447)" class="st0" width="7" height="83"/>
	
		<rect id="s13" x="2858.2" y="1204.7" transform="matrix(0.2098 0.9777 -0.9777 0.2098 3479.9219 -1813.2595)" class="st0" width="7" height="83"/>
	
		<rect id="s14" x="2880.7" y="1345.2" transform="matrix(0.1066 0.9943 -0.9943 0.1066 3955.6272 -1628.7864)" class="st0" width="7" height="83"/>
	
		<rect id="s15" x="2888.3" y="1487.3" transform="matrix(2.198395e-03 1 -1 2.198395e-03 4414.2227 -1366.3453)" class="st0" width="7" height="83"/>
	
		<rect id="s16" x="2881" y="1629.4" transform="matrix(-0.1022 0.9948 -0.9948 -0.1022 4841.4717 -1027.8024)" class="st0" width="7" height="83"/>
	
		<rect id="s17" x="2859" y="1769.9" transform="matrix(-0.2055 0.9787 -0.9787 -0.2055 5223.4751 -617.7917)" class="st0" width="7" height="83"/>
	
		<rect id="s18" x="2822.4" y="1907.4" transform="matrix(-0.3065 0.9519 -0.9519 -0.3065 5547.2212 -143.6253)" class="st0" width="7" height="83"/>
	
		<rect id="s19" x="2771.7" y="2040.3" transform="matrix(-0.4042 0.9147 -0.9147 -0.4042 5801.1167 384.9111)" class="st0" width="7" height="83"/>
	
		<rect id="s20" x="2707.4" y="2167.2" transform="matrix(-0.4975 0.8675 -0.8675 -0.4975 5975.4629 955.8652)" class="st0" width="7" height="83"/>
	
		<rect id="s21" x="2630.1" y="2286.7" transform="matrix(-0.5853 0.8108 -0.8108 -0.5853 6062.8643 1555.5184)" class="st0" width="7" height="83"/>
	
		<rect id="s22" x="2540.9" y="2397.5" transform="matrix(-0.6667 0.7453 -0.7453 -0.6667 6058.5469 2168.8611)" class="st0" width="7" height="83"/>
	
		<rect id="s23" x="2440.5" y="2498.4" transform="matrix(-0.7409 0.6716 -0.6716 -0.7409 5960.5796 2780.126)" class="st0" width="7" height="83"/>
	
		<rect id="s24" x="2330.2" y="2588.2" transform="matrix(-0.8069 0.5906 -0.5906 -0.8069 5769.9785 3373.355)" class="st0" width="7" height="83"/>
	
		<rect id="s25" x="2211.1" y="2666" transform="matrix(-0.8642 0.5032 -0.5032 -0.8642 5490.7007 3932.978)" class="st0" width="7" height="83"/>
	
		<rect id="s26" x="2084.5" y="2731" transform="matrix(-0.912 0.4102 -0.4102 -0.912 5129.5181 4444.3799)" class="st0" width="7" height="83"/>
	
		<rect id="s27" x="1951.8" y="2782.3" transform="matrix(-0.9498 0.3128 -0.3128 -0.9498 4695.7808 4894.4292)" class="st0" width="7" height="83"/>
	
		<rect id="s28" x="1814.5" y="2819.6" transform="matrix(-0.9773 0.2119 -0.2119 -0.9773 4201.0811 5271.9521)" class="st0" width="7" height="83"/>
	
		<rect id="s29" x="1674.1" y="2842.3" transform="matrix(-0.9941 0.1088 -0.1088 -0.9941 3658.8267 5568.126)" class="st0" width="7" height="83"/>
	
		<rect id="s30" x="1532" y="2850.3" transform="matrix(-1 4.396779e-03 -4.396779e-03 -1 3083.7454 5776.7808)" class="st0" width="7" height="83"/>
	
		<rect id="s31" x="1389.9" y="2843.4" transform="matrix(-0.995 -0.1 0.1 -0.995 2491.3418 5894.5947)" class="st0" width="7" height="83"/>
	
		<rect id="s32" x="1249.3" y="2821.6" transform="matrix(-0.9791 -0.2033 0.2033 -0.9791 1897.3245 5921.1763)" class="st0" width="7" height="83"/>
	
		<rect id="s33" x="1111.7" y="2785.3" transform="matrix(-0.9525 -0.3044 0.3044 -0.9525 1317.033 5859.0273)" class="st0" width="7" height="83"/>
	
		<rect id="s34" x="978.7" y="2734.9" transform="matrix(-0.9156 -0.4022 0.4022 -0.9156 764.8839 5713.3975)" class="st0" width="7" height="83"/>
	
		<rect id="s35" x="851.7" y="2670.9" transform="matrix(-0.8686 -0.4956 0.4956 -0.8686 253.8616 5492.0249)" class="st0" width="7" height="83"/>
	
		<rect id="s36" x="732" y="2593.9" transform="matrix(-0.8121 -0.5835 0.5835 -0.8121 -204.9267 5204.7842)" class="st0" width="7" height="83"/>
	
		<rect id="s37" x="621.1" y="2504.9" transform="matrix(-0.7468 -0.6651 0.6651 -0.7468 -602.6129 4863.2554)" class="st0" width="7" height="83"/>
	
		<rect id="s38" x="520" y="2404.7" transform="matrix(-0.6733 -0.7394 0.7394 -0.6733 -932.8334 4480.2266)" class="st0" width="7" height="83"/>
	
		<rect id="s39" x="429.9" y="2294.6" transform="matrix(-0.5924 -0.8056 0.8056 -0.5924 -1191.8857 4069.1626)" class="st0" width="7" height="83"/>
	
		<rect id="s40" x="351.8" y="2175.7" transform="matrix(-0.5051 -0.8631 0.8631 -0.5051 -1378.774 3643.6509)" class="st0" width="7" height="83"/>
	
		<rect id="s41" x="286.6" y="2049.2" transform="matrix(-0.4122 -0.9111 0.9111 -0.4122 -1495.1396 3216.8582)" class="st0" width="7" height="83"/>
	
		<rect id="s42" x="234.9" y="1916.7" transform="matrix(-0.3149 -0.9491 0.9491 -0.3149 -1545.0824 2801.0144)" class="st0" width="7" height="83"/>
	
		<rect id="s43" x="197.4" y="1779.4" transform="matrix(-0.2141 -0.9768 0.9768 -0.2141 -1534.882 2406.9507)" class="st0" width="7" height="83"/>
	
		<rect id="s44" x="174.3" y="1639" transform="matrix(-0.1109 -0.9938 0.9938 -0.1109 -1472.6318 2043.7048)" class="st0" width="7" height="83"/>
	
		<rect id="s45" x="166.1" y="1497" transform="matrix(-6.595142e-03 -1 1 -6.595142e-03 -1367.803 1718.2186)" class="st0" width="7" height="83"/>
	
		<rect id="s46" x="172.7" y="1354.9" transform="matrix(9.782132e-02 -0.9952 0.9952 9.782132e-02 -1230.757 1435.1306)" class="st0" width="7" height="83"/>
	
		<rect id="s47" x="194.1" y="1214.2" transform="matrix(0.2012 -0.9796 0.9796 0.2012 -1072.2317 1196.6793)" class="st0" width="7" height="83"/>
	
		<rect id="s48" x="230.1" y="1076.6" transform="matrix(0.3023 -0.9532 0.9532 0.3023 -902.8207 1002.7156)" class="st0" width="7" height="83"/>
	
		<rect id="s49" x="280.2" y="943.5" transform="matrix(0.4002 -0.9164 0.9164 0.4002 -732.4715 850.8243)" class="st0" width="7" height="83"/>
	
		<rect id="s50" x="344" y="816.3" transform="matrix(0.4936 -0.8697 0.8697 0.4936 -570.0239 736.5485)" class="st0" width="7" height="83"/>
	
		<rect id="s51" x="420.7" y="696.5" transform="matrix(0.5817 -0.8134 0.8134 0.5817 -422.8096 653.7045)" class="st0" width="7" height="83"/>
	
		<rect id="s52" x="509.5" y="585.3" transform="matrix(0.6634 -0.7482 0.7482 0.6634 -296.3295 594.7734)" class="st0" width="7" height="83"/>
	
		<rect id="s53" x="609.4" y="484" transform="matrix(0.7379 -0.6749 0.6749 0.7379 -194.0241 551.3508)" class="st0" width="7" height="83"/>
	
		<rect id="s54" x="719.3" y="393.7" transform="matrix(0.8043 -0.5942 0.5942 0.8043 -117.1464 514.632)" class="st0" width="7" height="83"/>
	
		<rect id="s55" x="838.1" y="315.3" transform="matrix(0.862 -0.507 0.507 0.862 -64.742 475.9136)" class="st0" width="7" height="83"/>
	
		<rect id="s56" x="964.4" y="249.8" transform="matrix(0.9102 -0.4142 0.4142 0.9102 -33.7378 427.0849)" class="st0" width="7" height="83"/>
	
		<rect id="s57" x="1096.8" y="197.9" transform="matrix(0.9484 -0.317 0.317 0.9484 -19.1346 361.0886)" class="st0" width="7" height="83"/>
	
		<rect id="s58" x="1234" y="160" transform="matrix(0.9763 -0.2162 0.2162 0.9763 -14.2943 272.3286)" class="st0" width="7" height="83"/>
	
		<rect id="s59" x="1374.3" y="136.6" transform="matrix(0.9936 -0.1131 0.1131 0.9936 -11.3085 157.0065)" class="st0" width="7" height="83"/>
</g>
</svg>
