<?xml version="1.0" encoding="utf-8"?>
<!-- Generator: Adobe Illustrator 25.4.1, SVG Export Plug-In . SVG Version: 6.00 Build 0)  -->
<svg version="1.1" id="Calque_1" xmlns="http://www.w3.org/2000/svg" xmlns:xlink="http://www.w3.org/1999/xlink" x="0px" y="0px"
	 viewBox="0 0 200 200" style="enable-background:new 0 0 200 200;" xml:space="preserve">

<g>
	<g>
		<path class="st2" d="M25.2,108c1.1-5.5,2.1-11.1,3.4-16.5c0.6-2.6,1.6-5.1,2.7-7.5c1.5-3.4,4.7-4.9,8.1-3.9
			c3.6,1.1,6.1,4.6,5.3,8.1c-0.8,3.5-2.2,6.9-3.1,10.5c-8.5,33.1,13.2,66.9,47.3,73.7c33.2,6.6,66.5-17,70.8-50.7
			c3.3-25.9-6.8-46-28.6-60.2c-1.9-1.3-4-2.5-5.6-4.1c-2.5-2.6-2.4-6.3-0.3-9.1c2.1-2.8,5.1-3.5,8.6-1.6
			c23.5,12.6,37.2,32.1,40.5,58.7c0.1,0.7,0.4,1.4,0.6,2.2c0,3.5,0,7.1,0,10.6c-0.2,0.9-0.5,1.7-0.6,2.6
			c-4.1,31.1-20.9,52.2-50.2,63.1c-6,2.2-12.7,2.8-19,4.2c-3.3,0-6.6,0-10,0c-0.7-0.2-1.5-0.5-2.2-0.6c-31.6-4-52.8-21.1-63.6-50.9
			c-2.1-5.8-2.7-12.2-4-18.4C25.2,114.7,25.2,111.3,25.2,108z"/>
		<path class="st2" d="M102.3,38.2c4.1,1.9,7.8,4.1,8.7,9.1c1.1,6-2.2,11.7-7.8,13.3c-5.7,1.7-11.8-1.3-13.9-6.8
			c-2.2-5.7,0.4-11.9,6-14.5c0.8-0.4,1.5-0.8,2.3-1.1C99.2,38.2,100.8,38.2,102.3,38.2z"/>
		<path class="st2" d="M45.5,57.2c7.4,5.4,14.9,10.7,22.2,16.2c13,10,25.9,20.1,38.8,30.2c3.9,3.1,5.6,7.1,4.5,12
			c-1,4.4-3.8,7.2-8.2,8.3c-4.9,1.2-9-0.3-12.1-4.3c-14.4-19-28.8-37.9-43.1-57c-1.1-1.5-2-3.1-2.9-4.7
			C44.9,57.7,45.2,57.5,45.5,57.2z"/>
	</g>
</g>
</svg>
