<?xml version="1.0" encoding="utf-8"?>
<!-- Generator: Adobe Illustrator 25.4.1, SVG Export Plug-In . SVG Version: 6.00 Build 0)  -->
<svg version="1.1" id="Calque_1" xmlns="http://www.w3.org/2000/svg" xmlns:xlink="http://www.w3.org/1999/xlink" x="0px" y="0px"
	 viewBox="0 0 200 200" style="enable-background:new 0 0 200 200;" xml:space="preserve">

<g>
	<path class="st2" d="M148.7,169.1c2.5,3.5,5,7,7.5,10.5c1.9,2.7,3.9,5.3,5.7,8c2,2.9,1.6,7.1-1.8,9.3c-2.6,1.8-6.8,1.3-8.9-1.7
		c-4-5.6-8-11.2-12-16.8c-0.4-0.5-0.7-1-1.1-1.4c-2.6,1.3-5,2.7-7.6,3.9c-2.2,1-4.4,1.9-6.7,2.6c-3.1,1-6.3,1.9-9.5,2.6
		c-2.4,0.5-4.8,0.8-7.2,1c-3.8,0.4-7.6,0.5-11.5,0.2c-5.3-0.4-10.5-1.1-15.6-2.7c-3.4-1.1-6.8-2.2-10-3.6c-2.5-1.1-4.9-2.5-7.3-3.8
		c-0.5-0.3-0.7-0.4-1.1,0.2c-2.3,3.3-4.7,6.7-7.1,10c-2,2.8-3.9,5.6-6,8.2c-2.3,3-7.1,3.1-9.6,0.4c-2.4-2.6-2.6-5.9-0.4-8.9
		c2.4-3.3,4.8-6.7,7.2-10c1.8-2.5,3.6-5.1,5.5-7.6c0.4-0.5,0.1-0.7-0.2-0.9c-1.9-1.9-3.9-3.8-5.8-5.8c-3.3-3.6-6.1-7.5-8.5-11.7
		c-2.8-4.8-5.1-9.8-6.8-15.1c-1.4-4.4-2.4-9-2.9-13.6c-0.6-5.3-0.7-10.7-0.1-16c0.4-3.6,1.1-7.2,1.9-10.7c0.8-3.2,1.9-6.4,3.1-9.5
		c1.5-3.9,3.4-7.5,5.6-11.1c3.5-5.7,7.7-10.8,12.6-15.4c3.5-3.2,7.2-6.1,11.2-8.6c4-2.5,8.2-4.6,12.6-6.2c5.7-2.2,11.6-3.6,17.7-4.3
		c5.6-0.6,11.2-0.6,16.8,0c4.1,0.4,8.1,1.2,12,2.4c3.7,1.1,7.2,2.6,10.7,4.1c3.7,1.6,7.3,3.6,10.5,6.1c2.8,2.1,5.6,4.1,8.1,6.4
		c2.6,2.4,4.9,5,7.2,7.6c3.9,4.6,7.1,9.6,9.5,15c1.5,3.4,3,6.9,4.1,10.5c1.1,3.7,1.8,7.6,2.4,11.5c0.7,4.6,0.9,9.3,0.5,14
		c-0.3,4.5-1,9-2,13.3c-1.1,4.3-2.5,8.4-4.3,12.4c-2.5,5.5-5.7,10.7-9.4,15.4c-2.7,3.4-5.7,6.5-8.9,9.4
		C148.8,169,148.7,169.1,148.7,169.1z M100,53.5c-32.2-0.1-61,26.1-60.5,61.6c0.5,31.4,26.2,59.5,61.3,59.2
		c32.1-0.3,59.9-26.8,59.5-61.2C160.1,80.7,133.6,53.5,100,53.5z"/>
	<path class="st2" d="M136.3,41c6.1-8.6,16.2-12.8,26.4-10.8c11.9,2.3,19.3,11.4,21,21.5c2,11.8-4.1,21.4-10.9,25.8
		C164.6,61.4,152.5,49.3,136.3,41z"/>
	<path class="st2" d="M63.6,41c-16.1,8.3-28.3,20.4-36.5,36.5C19.9,72.8,15,63.4,16,53.5c1.3-12.7,10.7-21.3,21.3-23.3
		C48.7,28.1,58.7,33.5,63.6,41z"/>
	<path class="st2" d="M93.4,94.8c0-6.3,0-12.7,0-19c0-4.6,4.4-7.7,8.7-6.2c2.7,0.9,4.4,3.2,4.4,6.1c0.1,10.4,0,20.7,0,31.1
		c0,1.1,0.1,2.2,0,3.2c-0.1,0.9,0.3,1.4,0.9,2c4.4,4.2,8.7,8.5,13,12.7c1.8,1.8,3.6,3.6,5.4,5.3c2.4,2.2,2.4,5.6,1.4,7.6
		c-1.4,2.8-4.3,4.2-7.2,3.7c-1.7-0.3-3-1.4-4.3-2.7c-3.5-3.5-7-6.9-10.5-10.3c-3.3-3.2-6.5-6.5-9.8-9.7c-1.4-1.4-2-3-2-4.9
		C93.4,107.4,93.4,101.1,93.4,94.8z"/>
</g>
</svg>
