<?xml version="1.0" encoding="utf-8"?>
<!-- Generator: Adobe Illustrator 25.4.1, SVG Export Plug-In . SVG Version: 6.00 Build 0)  -->
<svg class="iconNav" version="1.1" id="Calque_1" xmlns="http://www.w3.org/2000/svg" xmlns:xlink="http://www.w3.org/1999/xlink" x="0px" y="0px"
	 viewBox="0 0 200 200" style="enable-background:new 0 0 200 200;" xml:space="preserve">
<g>
	<path class="st2" d="M105.7,187c-4,0-8,0-12,0c-1.8-0.3-3.6-0.6-5.4-1c-33.6-6.1-57.2-30.4-62.2-64.2C21.4,90,40.1,56.5,69.8,44.2
		c7.5-3.1,15.5-4.8,23.6-7.3c0-1.2,0-3,0-5.1c-1.6,0-3,0.2-4.3-0.1c-1.6-0.4-3.5-0.7-4.7-1.8c-3.8-3.2-2.5-8.2,2.7-11.4
		c8.7,0,17.5,0,26.2,0c3.1,1.6,5.4,3.7,4.7,7.6c-1.1,6.6-6.7,5.3-11,5.9c0,2.2,0,4,0,5.8c2.6,0.4,5,0.7,7.3,1.1
		c33.7,6.3,59.6,36.6,60.4,70.3c0.8,36.4-22.8,67.6-57.2,75.5C113.5,185.7,109.6,186.3,105.7,187z M160.9,105.4
		c-2.3-29.7-29.2-52.7-54.3-53.7c0,2.1,0.1,4.2,0,6.3c-0.2,3.8-2.7,6.4-6.4,6.4c-3.8,0.1-6.4-2.5-6.6-6.6c-0.1-2.1,0-4.1,0-6.2
		c-25.3-0.4-58.2,32.8-53.9,53.8c9.9,0.8,12.6,2.1,12.4,6.6c-0.5,8.6-7.6,6.3-12.7,7c1.7,28.7,28.6,52.9,54.2,53.8
		c0.4-5.1-1.7-12.5,6.4-12.6c8.4-0.1,6.2,7.6,6.8,12.7c28.9-1.9,53.2-28.7,53.9-53.9c-2.7-0.2-5.5,0-8.1-0.7c-2.9-0.7-4.5-3-4.5-6.1
		C148,107.8,150.2,106.5,160.9,105.4z"/>
	<path class="st2" d="M89.8,112.2c0-5.2,3.3-8.9,8.6-10.3c2-0.5,4.1-1.6,5.6-3c5.3-4.9,10.3-10.2,15.4-15.2
		c3.6-3.5,7.3-3.8,10.1-0.9c2.8,2.8,2.5,6.8-0.9,10.2c-5.3,5.4-10.8,10.7-16,16.2c-1.1,1.1-1.9,2.8-2.2,4.4c-1,5.5-5.5,9.4-11,9.1
		C93.9,122.4,89.8,117.9,89.8,112.2z"/>
</g>


</svg>
