<?xml version="1.0" encoding="utf-8"?>
<!-- Generator: Adobe Illustrator 25.4.1, SVG Export Plug-In . SVG Version: 6.00 Build 0)  -->
<svg version="1.1" id="Calque_1" xmlns="http://www.w3.org/2000/svg" xmlns:xlink="http://www.w3.org/1999/xlink" x="0px" y="0px"
	 viewBox="0 0 200 200" style="enable-background:new 0 0 200 200;" xml:space="preserve">

<g>
	<path class="st2" d="M92.5,96.7c0-6.3,0-12.7,0-19c0-4.6,4.4-7.7,8.7-6.2c2.7,0.9,4.4,3.2,4.4,6.1c0.1,10.4,0,20.7,0,31.1
		c0,1.1,0.1,2.2,0,3.2c-0.1,0.9,0.3,1.4,0.9,2c4.4,4.2,8.7,8.5,13,12.7c1.8,1.8,3.6,3.6,5.4,5.3c2.4,2.2,2.4,5.6,1.4,7.6
		c-1.4,2.8-4.3,4.2-7.2,3.7c-1.7-0.3-3-1.4-4.3-2.7c-3.5-3.5-7-6.9-10.5-10.3c-3.3-3.2-6.5-6.5-9.8-9.7c-1.4-1.4-2-3-2-4.9
		C92.5,109.3,92.5,103,92.5,96.7z"/>
	<path class="st2" d="M100,54.3c33.3,0,60.4,27.1,60.4,60.4s-27.1,60.4-60.4,60.4S39.6,148,39.6,114.7S66.7,54.3,100,54.3 M100,41.3
		c-40.5,0-73.4,32.8-73.4,73.4s32.8,73.4,73.4,73.4c40.5,0,73.4-32.8,73.4-73.4S140.5,41.3,100,41.3L100,41.3z"/>
</g>
</svg>
